<?xml version="1.0" encoding="UTF-8" standalone="no"?>
<svg
   width="135"
   height="40"
   version="1.1"
   id="svg18"
   xmlns="http://www.w3.org/2000/svg"
   xmlns:svg="http://www.w3.org/2000/svg"
   xmlns:rdf="http://www.w3.org/1999/02/22-rdf-syntax-ns#"
   xmlns:cc="http://creativecommons.org/ns#"
   xmlns:dc="http://purl.org/dc/elements/1.1/">
  <title
     id="title1">app-store-badges-en</title>
  <defs
     id="defs8">
    <linearGradient
       id="a"
       x1="22.867727"
       x2="22.867727"
       y1="5.3932066"
       y2="23.348989"
       gradientTransform="scale(0.71909421,1.3906384)"
       gradientUnits="userSpaceOnUse">
      <stop
         stop-color="#00C3FF"
         offset="3.938%"
         id="stop1" />
      <stop
         stop-color="#00E1FF"
         offset="97.744%"
         id="stop2" />
    </linearGradient>
    <linearGradient
       id="b"
       x1="28.459152"
       x2="6.3252635"
       y1="21.854353"
       y2="21.854353"
       gradientTransform="scale(1.0924445,0.91537833)"
       gradientUnits="userSpaceOnUse">
      <stop
         stop-color="#FDDE31"
         offset="0%"
         id="stop3" />
      <stop
         stop-color="#FABC31"
         offset="40%"
         id="stop4" />
      <stop
         stop-color="#F8A431"
         offset="77%"
         id="stop5" />
      <stop
         stop-color="#F79B31"
         offset="100%"
         id="stop6" />
    </linearGradient>
    <linearGradient
       id="c"
       x1="21.772064"
       x2="1.8172525"
       y1="25.389917"
       y2="51.292179"
       gradientTransform="scale(1.1390738,0.87790627)"
       gradientUnits="userSpaceOnUse">
      <stop
         stop-color="#FF3A44"
         offset="0%"
         id="stop7" />
      <stop
         stop-color="#C4206D"
         offset="100%"
         id="stop8" />
    </linearGradient>
  </defs>
  <g
     fill="none"
     id="g18"
     transform="translate(-135)">
    <path
       fill="#000000"
       d="m 134.03,35.27 c 0,2.1 -1.7,3.83 -3.83,3.83 H 4.73 C 2.6,39.1 0.9,37.38 0.9,35.27 V 4.72 C 0.9,2.63 2.6,0.9 4.72,0.9 H 130.2 c 2.12,0 3.83,1.7 3.83,3.82 z"
       id="path8" />
    <path
       d="m 30.13,19.78 c -0.03,-3.22 2.64,-4.8 2.76,-4.86 -1.52,-2.2 -3.86,-2.5 -4.7,-2.53 -1.95,-0.22 -3.86,1.17 -4.86,1.17 -1.03,0 -2.57,-1.16 -4.23,-1.12 -2.13,0.03 -4.13,1.27 -5.23,3.2 -2.27,3.9 -0.58,9.68 1.6,12.85 1.08,1.55 2.35,3.3 4,3.23 1.63,-0.07 2.24,-1.04 4.2,-1.04 1.94,0 2.5,1.03 4.2,1 1.75,-0.04 2.85,-1.57 3.9,-3.14 1.25,-1.78 1.76,-3.53 1.78,-3.62 -0.04,-0.02 -3.4,-1.3 -3.42,-5.16 z m -3.2,-9.48 c 0.87,-1.1 1.47,-2.57 1.3,-4.08 -1.26,0.05 -2.84,0.87 -3.75,1.94 -0.8,0.94 -1.53,2.5 -1.34,3.94 1.42,0.1 2.88,-0.72 3.8,-1.8 z M 53.64,31.5 H 51.37 L 50.13,27.6 H 45.8 l -1.18,3.9 h -2.2 l 4.27,-13.3 h 2.64 l 4.3,13.3 z m -3.9,-5.55 -1.1,-3.47 c -0.13,-0.36 -0.35,-1.2 -0.68,-2.5 h -0.04 c -0.13,0.56 -0.34,1.4 -0.63,2.5 l -1.12,3.47 h 3.58 z m 14.92,0.65 c 0,1.62 -0.44,2.9 -1.32,3.86 -0.8,0.84 -1.77,1.26 -2.94,1.26 -1.27,0 -2.17,-0.45 -2.73,-1.36 h -0.04 v 5.05 H 55.5 V 25.08 c 0,-1.03 -0.03,-2.08 -0.08,-3.16 h 1.88 l 0.12,1.53 h 0.04 c 0.7,-1.15 1.8,-1.72 3.23,-1.72 1.13,0 2.07,0.46 2.83,1.35 0.75,0.9 1.13,2.08 1.13,3.54 z m -2.17,0.07 c 0,-0.94 -0.22,-1.7 -0.64,-2.3 -0.46,-0.65 -1.08,-0.96 -1.86,-0.96 -0.52,0 -1,0.18 -1.43,0.53 -0.43,0.35 -0.7,0.8 -0.84,1.37 -0.06,0.27 -0.1,0.48 -0.1,0.65 v 1.6 c 0,0.7 0.22,1.3 0.65,1.77 0.42,0.48 0.98,0.72 1.66,0.72 0.8,0 1.43,-0.3 1.88,-0.92 0.45,-0.62 0.67,-1.44 0.67,-2.45 z M 75.7,26.6 c 0,1.62 -0.44,2.9 -1.33,3.86 -0.78,0.84 -1.77,1.26 -2.94,1.26 -1.26,0 -2.17,-0.45 -2.72,-1.36 h -0.03 v 5.05 H 66.55 V 25.08 c 0,-1.03 -0.03,-2.08 -0.08,-3.16 h 1.87 l 0.12,1.53 h 0.04 c 0.7,-1.15 1.78,-1.72 3.23,-1.72 1.13,0 2.08,0.46 2.83,1.35 0.76,0.9 1.14,2.08 1.14,3.54 z m -2.17,0.07 c 0,-0.94 -0.2,-1.7 -0.64,-2.3 -0.47,-0.65 -1.08,-0.96 -1.86,-0.96 -0.53,0 -1,0.18 -1.43,0.53 -0.42,0.35 -0.7,0.8 -0.83,1.37 -0.07,0.27 -0.1,0.48 -0.1,0.65 v 1.6 c 0,0.7 0.2,1.3 0.64,1.77 0.44,0.48 1,0.72 1.68,0.72 0.8,0 1.43,-0.3 1.88,-0.92 0.44,-0.62 0.67,-1.44 0.67,-2.45 z m 14.51,1.1 c 0,1.13 -0.4,2.05 -1.18,2.77 -0.87,0.77 -2.08,1.16 -3.63,1.16 -1.43,0 -2.58,-0.27 -3.45,-0.83 l 0.5,-1.78 c 0.93,0.56 1.96,0.84 3.08,0.84 0.8,0 1.43,-0.18 1.88,-0.54 0.44,-0.36 0.67,-0.85 0.67,-1.45 0,-0.54 -0.18,-1 -0.55,-1.37 -0.36,-0.37 -0.98,-0.7 -1.83,-1.03 -2.33,-0.87 -3.5,-2.14 -3.5,-3.8 0,-1.1 0.4,-2 1.23,-2.7 0.8,-0.7 1.9,-1.05 3.26,-1.05 1.22,0 2.22,0.2 3.03,0.63 L 87,20.37 c -0.76,-0.4 -1.6,-0.6 -2.55,-0.6 -0.75,0 -1.34,0.17 -1.76,0.54 -0.37,0.34 -0.54,0.74 -0.54,1.22 0,0.52 0.2,0.96 0.6,1.3 0.36,0.32 1,0.66 1.94,1.03 1.15,0.46 2,1 2.53,1.62 0.54,0.6 0.8,1.38 0.8,2.3 z M 95.1,23.5 h -2.36 v 4.67 c 0,1.18 0.4,1.77 1.24,1.77 0.38,0 0.7,-0.03 0.95,-0.1 l 0.06,1.62 c -0.43,0.16 -0.98,0.24 -1.67,0.24 -0.84,0 -1.5,-0.26 -1.98,-0.77 -0.47,-0.5 -0.7,-1.38 -0.7,-2.6 v -4.82 h -1.4 v -1.6 h 1.4 v -1.75 l 2.1,-0.63 v 2.4 h 2.34 v 1.6 z m 10.6,3.13 c 0,1.47 -0.43,2.68 -1.27,3.63 -0.9,0.97 -2.06,1.46 -3.52,1.46 -1.4,0 -2.52,-0.47 -3.35,-1.4 -0.84,-0.93 -1.26,-2.1 -1.26,-3.53 0,-1.5 0.42,-2.72 1.3,-3.67 0.85,-0.94 2,-1.42 3.47,-1.42 1.4,0 2.54,0.48 3.4,1.4 0.8,0.92 1.22,2.1 1.22,3.53 z m -2.22,0.07 c 0,-0.9 -0.2,-1.65 -0.57,-2.28 -0.44,-0.77 -1.08,-1.15 -1.9,-1.15 -0.86,0 -1.52,0.38 -1.96,1.15 -0.4,0.63 -0.57,1.4 -0.57,2.32 0,0.88 0.18,1.64 0.57,2.27 0.46,0.78 1.1,1.16 1.93,1.16 0.82,0 1.46,-0.4 1.92,-1.17 0.38,-0.65 0.58,-1.42 0.58,-2.3 z m 9.14,-2.92 c -0.2,-0.04 -0.44,-0.06 -0.67,-0.06 -0.75,0 -1.33,0.3 -1.74,0.85 -0.34,0.5 -0.52,1.14 -0.52,1.9 v 5.03 h -2.13 l 0.02,-6.57 c 0,-1.1 -0.03,-2.1 -0.08,-3.02 h 1.84 l 0.08,1.85 h 0.06 c 0.23,-0.64 0.58,-1.14 1.07,-1.53 0.47,-0.34 0.98,-0.5 1.54,-0.5 0.2,0 0.36,0 0.52,0.03 v 2.03 z m 9.54,2.47 c 0,0.38 -0.03,0.7 -0.08,0.97 h -6.4 c 0.03,0.95 0.34,1.67 0.93,2.17 0.55,0.44 1.25,0.66 2.1,0.66 0.95,0 1.8,-0.15 2.6,-0.45 l 0.32,1.5 c -0.9,0.38 -1.98,0.58 -3.2,0.58 -1.5,0 -2.67,-0.44 -3.52,-1.3 -0.85,-0.9 -1.27,-2.06 -1.27,-3.53 0,-1.45 0.4,-2.66 1.18,-3.62 0.84,-1.02 1.96,-1.54 3.37,-1.54 1.38,0 2.43,0.5 3.14,1.53 0.57,0.82 0.86,1.82 0.86,3.02 z m -2.04,-0.55 c 0.02,-0.63 -0.12,-1.18 -0.4,-1.64 -0.38,-0.6 -0.95,-0.9 -1.7,-0.9 -0.7,0 -1.27,0.3 -1.7,0.88 -0.36,0.46 -0.57,1 -0.64,1.66 z M 49.05,10 c 0,1.2 -0.35,2.07 -1.06,2.67 -0.66,0.55 -1.6,0.82 -2.8,0.82 -0.6,0 -1.1,-0.04 -1.52,-0.1 V 7 c 0.55,-0.1 1.15,-0.13 1.8,-0.13 1.15,0 2,0.25 2.6,0.74 0.64,0.56 0.97,1.36 0.97,2.4 z m -1.1,0.04 c 0,-0.76 -0.2,-1.35 -0.6,-1.76 -0.42,-0.4 -1,-0.6 -1.78,-0.6 -0.33,0 -0.6,0 -0.85,0.06 v 4.9 c 0.13,0 0.37,0.02 0.7,0.02 0.8,0 1.43,-0.23 1.87,-0.67 0.42,-0.46 0.64,-1.1 0.64,-1.96 z m 6.95,1 c 0,0.72 -0.2,1.32 -0.6,1.78 -0.45,0.48 -1.02,0.72 -1.74,0.72 -0.7,0 -1.24,-0.23 -1.65,-0.7 -0.4,-0.45 -0.6,-1.03 -0.6,-1.73 0,-0.72 0.2,-1.3 0.63,-1.78 0.42,-0.46 1,-0.7 1.7,-0.7 0.7,0 1.26,0.23 1.68,0.7 0.4,0.44 0.6,1 0.6,1.72 z m -1.08,0.03 c 0,-0.43 -0.1,-0.8 -0.28,-1.12 -0.22,-0.37 -0.53,-0.56 -0.94,-0.56 -0.42,0 -0.74,0.18 -0.96,0.55 -0.2,0.3 -0.28,0.7 -0.28,1.14 0,0.42 0.1,0.8 0.28,1.1 0.23,0.38 0.54,0.57 0.95,0.57 0.4,0 0.7,-0.2 0.93,-0.57 0.2,-0.32 0.3,-0.7 0.3,-1.13 z m 8.95,-2.35 -1.48,4.7 h -0.97 l -0.6,-2.03 c -0.17,-0.53 -0.3,-1.03 -0.4,-1.54 -0.1,0.52 -0.23,1.03 -0.4,1.53 l -0.64,2.03 H 57.3 L 55.92,8.71 H 57 l 0.54,2.23 c 0.13,0.53 0.24,1.03 0.33,1.5 0.1,-0.38 0.22,-0.88 0.4,-1.5 L 58.94,8.7 h 0.86 l 0.64,2.2 c 0.15,0.54 0.28,1.06 0.38,1.55 h 0.02 c 0.07,-0.48 0.18,-1 0.32,-1.55 l 0.58,-2.2 h 1.02 z m 5.43,4.71 h -1.05 v -2.7 c 0,-0.83 -0.32,-1.24 -0.95,-1.24 -0.3,0 -0.56,0.1 -0.76,0.33 -0.2,0.23 -0.3,0.5 -0.3,0.8 v 2.8 H 64.1 v -3.36 c 0,-0.42 0,-0.87 -0.03,-1.35 H 65 l 0.04,0.73 h 0.03 c 0.12,-0.22 0.3,-0.4 0.54,-0.56 0.3,-0.2 0.6,-0.28 0.96,-0.28 0.44,0 0.8,0.14 1.1,0.43 0.36,0.35 0.54,0.87 0.54,1.56 v 2.83 z m 2.9,0 H 70.04 V 6.56 h 1.05 z m 6.16,-2.39 c 0,0.72 -0.2,1.32 -0.62,1.78 -0.44,0.48 -1,0.72 -1.73,0.72 -0.68,0 -1.23,-0.23 -1.64,-0.7 -0.4,-0.45 -0.62,-1.03 -0.62,-1.73 0,-0.72 0.2,-1.3 0.64,-1.78 0.42,-0.46 1,-0.7 1.7,-0.7 0.7,0 1.25,0.23 1.68,0.7 0.4,0.44 0.6,1 0.6,1.72 z m -1.1,0.03 c 0,-0.43 -0.08,-0.8 -0.27,-1.12 -0.23,-0.37 -0.54,-0.56 -0.95,-0.56 -0.42,0 -0.74,0.18 -0.96,0.55 -0.2,0.3 -0.3,0.7 -0.3,1.14 0,0.42 0.1,0.8 0.3,1.1 0.22,0.38 0.53,0.57 0.94,0.57 0.4,0 0.7,-0.2 0.94,-0.57 0.2,-0.32 0.3,-0.7 0.3,-1.13 z m 6.17,2.36 h -0.94 l -0.1,-0.54 h -0.02 c -0.32,0.42 -0.78,0.64 -1.37,0.64 -0.44,0 -0.8,-0.14 -1.07,-0.43 -0.25,-0.24 -0.37,-0.57 -0.37,-0.95 0,-0.57 0.24,-1 0.72,-1.32 0.48,-0.3 1.16,-0.45 2.04,-0.44 v -0.1 c 0,-0.62 -0.33,-0.93 -0.98,-0.93 -0.47,0 -0.88,0.12 -1.23,0.35 l -0.2,-0.7 c 0.43,-0.26 0.97,-0.4 1.6,-0.4 1.24,0 1.86,0.65 1.86,1.95 v 1.74 c 0,0.48 0.02,0.86 0.07,1.13 z m -1.1,-1.62 v -0.7 c -1.14,-0.03 -1.72,0.28 -1.72,0.94 0,0.24 0.07,0.43 0.2,0.55 0.14,0.1 0.32,0.17 0.52,0.17 0.23,0 0.45,-0.07 0.64,-0.22 0.2,-0.14 0.32,-0.33 0.37,-0.55 v -0.2 z m 7.05,1.62 h -0.93 l -0.04,-0.75 h -0.02 c -0.3,0.57 -0.8,0.86 -1.52,0.86 -0.57,0 -1.04,-0.22 -1.4,-0.67 -0.4,-0.45 -0.58,-1.02 -0.58,-1.74 0,-0.76 0.2,-1.38 0.62,-1.85 0.4,-0.44 0.87,-0.66 1.45,-0.66 0.63,0 1.08,0.2 1.33,0.64 h 0.02 v -2.7 h 1.05 v 5.6 c 0,0.46 0,0.88 0.03,1.27 z M 87.2,11.45 v -0.8 c 0,-0.13 0,-0.24 -0.03,-0.32 -0.06,-0.25 -0.2,-0.47 -0.38,-0.64 -0.2,-0.18 -0.44,-0.26 -0.7,-0.26 -0.4,0 -0.7,0.15 -0.93,0.46 -0.22,0.3 -0.34,0.7 -0.34,1.2 0,0.46 0.1,0.84 0.32,1.13 0.23,0.3 0.54,0.47 0.92,0.47 a 1,1 0 0 0 0.83,-0.4 c 0.2,-0.23 0.3,-0.52 0.3,-0.86 z m 10.05,-0.41 c 0,0.72 -0.2,1.32 -0.62,1.78 -0.44,0.48 -1,0.72 -1.73,0.72 -0.7,0 -1.24,-0.23 -1.65,-0.7 -0.4,-0.45 -0.62,-1.03 -0.62,-1.73 0,-0.72 0.2,-1.3 0.64,-1.78 0.42,-0.46 1,-0.7 1.7,-0.7 0.7,0 1.26,0.23 1.68,0.7 0.4,0.44 0.6,1 0.6,1.72 z m -1.1,0.03 c 0,-0.43 -0.08,-0.8 -0.27,-1.12 -0.22,-0.37 -0.53,-0.56 -0.94,-0.56 -0.42,0 -0.74,0.18 -0.96,0.55 -0.2,0.3 -0.28,0.7 -0.28,1.14 0,0.42 0.1,0.8 0.28,1.1 0.23,0.38 0.54,0.57 0.95,0.57 0.4,0 0.72,-0.2 0.94,-0.57 0.2,-0.32 0.3,-0.7 0.3,-1.13 z m 6.73,2.36 h -1.04 v -2.7 c 0,-0.83 -0.32,-1.24 -0.95,-1.24 -0.33,0 -0.58,0.1 -0.77,0.33 -0.2,0.23 -0.3,0.5 -0.3,0.8 v 2.8 H 98.8 v -3.36 c 0,-0.42 -0.02,-0.87 -0.05,-1.35 h 0.92 l 0.05,0.73 h 0.03 c 0.12,-0.22 0.3,-0.4 0.54,-0.56 0.28,-0.2 0.6,-0.28 0.94,-0.28 0.44,0 0.8,0.14 1.1,0.43 0.36,0.35 0.54,0.87 0.54,1.56 v 2.83 z m 7.06,-3.93 h -1.16 v 2.3 c 0,0.58 0.2,0.87 0.6,0.87 0.2,0 0.36,-0.02 0.48,-0.05 l 0.03,0.8 c -0.22,0.07 -0.5,0.1 -0.83,0.1 -0.4,0 -0.73,-0.12 -0.97,-0.37 -0.23,-0.25 -0.35,-0.67 -0.35,-1.27 V 9.5 h -0.7 l 0.02,-0.78 h 0.68 V 7.85 l 1.03,-0.3 V 8.7 h 1.16 v 0.78 z m 5.54,3.93 h -1.05 v -2.68 c 0,-0.84 -0.3,-1.27 -0.94,-1.27 -0.5,0 -0.83,0.25 -1,0.74 -0.05,0.1 -0.06,0.23 -0.06,0.38 v 2.83 h -1.05 V 6.56 h 1.04 V 9.4 h 0.02 c 0.33,-0.52 0.8,-0.78 1.4,-0.78 0.45,0 0.8,0.14 1.1,0.43 0.35,0.35 0.52,0.88 0.52,1.58 v 2.8 z m 5.72,-2.58 c 0,0.2 0,0.35 -0.03,0.48 h -3.14 c 0,0.46 0.16,0.82 0.45,1.06 0.27,0.2 0.6,0.32 1.03,0.32 0.47,0 0.9,-0.07 1.28,-0.22 l 0.16,0.73 c -0.44,0.2 -0.97,0.3 -1.58,0.3 -0.73,0 -1.3,-0.22 -1.72,-0.65 -0.42,-0.43 -0.62,-1 -0.62,-1.74 0,-0.7 0.2,-1.3 0.58,-1.77 0.4,-0.5 0.95,-0.76 1.65,-0.76 0.67,0 1.2,0.27 1.54,0.77 0.27,0.4 0.4,0.9 0.4,1.48 z m -1,-0.27 c 0.02,-0.3 -0.05,-0.58 -0.2,-0.8 -0.18,-0.3 -0.45,-0.44 -0.83,-0.44 -0.34,0 -0.62,0.14 -0.83,0.43 -0.18,0.22 -0.28,0.5 -0.3,0.8 h 2.17 z"
       fill="#ffffff"
       id="path9" />
    <path
       fill="#a6a6a6"
       d="m 130.2,39 c 2.07,0 3.8,-1.7 3.8,-3.73 V 4.73 C 134,2.7 132.27,1 130.2,1 H 4.73 A 3.73,3.73 0 0 0 1,4.73 V 35.27 C 1,37.32 2.68,39 4.73,39 Z m 0,1 H 4.73 C 2.13,40 0,37.87 0,35.27 V 4.73 C 0,2.13 2.12,0 4.73,0 H 130.2 c 2.6,0 4.8,2.12 4.8,4.73 v 30.54 c 0,2.6 -2.2,4.73 -4.8,4.73 z"
       id="path10" />
    <g
       id="g17">
      <g
         transform="translate(135)"
         id="g16">
        <rect
           width="135"
           height="40"
           fill="#000000"
           rx="5"
           id="rect10"
           x="0"
           y="0" />
        <path
           fill="#ffffff"
           stroke="#ffffff"
           stroke-width="0.2"
           d="m 47.42,10.24 c 0.03,0.74 -0.24,1.46 -0.75,2 -0.57,0.6 -1.37,0.92 -2.2,0.9 -1.27,-0.02 -2.4,-0.8 -2.9,-1.96 -0.47,-1.17 -0.2,-2.52 0.7,-3.42 0.57,-0.6 1.37,-0.92 2.2,-0.9 0.42,0 0.84,0.08 1.23,0.25 0.36,0.16 0.68,0.4 0.94,0.68 l -0.53,0.53 c -0.4,-0.47 -1,-0.73 -1.63,-0.7 -0.63,0 -1.24,0.25 -1.68,0.7 -0.45,0.46 -0.68,1.07 -0.66,1.7 0,0.95 0.55,1.82 1.42,2.2 0.88,0.38 1.9,0.2 2.58,-0.47 0.3,-0.33 0.5,-0.77 0.5,-1.22 h -2.17 v -0.7 h 2.9 c 0.04,0.14 0.05,0.3 0.05,0.44 z M 52,7.74 h -2.7 v 1.9 h 2.46 v 0.72 H 49.3 v 1.9 H 52 V 13 H 48.5 V 7 H 52 Z M 55.28,13 H 54.51 V 7.74 H 52.84 V 7 H 57 v 0.74 h -1.72 z m 4.66,0 V 7 h 0.77 v 6 z m 4.19,0 H 63.36 V 7.74 H 61.68 V 7 h 4.12 v 0.74 h -1.67 z m 9.47,-0.78 c -1.2,1.2 -3.17,1.2 -4.4,0 a 3.26,3.26 0 0 1 0,-4.45 c 0.6,-0.6 1.38,-0.92 2.2,-0.92 0.84,0 1.63,0.33 2.2,0.92 a 3.2,3.2 0 0 1 0,4.45 z m -3.82,-0.5 c 0.9,0.9 2.36,0.9 3.26,0 0.9,-0.98 0.9,-2.46 0,-3.44 -0.9,-0.9 -2.36,-0.9 -3.26,0 -0.9,0.98 -0.9,2.46 0,3.44 z M 75.58,13 V 7 h 0.94 l 2.92,4.67 V 7 h 0.77 v 6 h -0.8 L 76.37,8.1 V 13 Z"
           id="path11" />
        <path
           fill="#ffffff"
           d="m 68.14,21.75 c -2.34,0 -4.24,1.92 -4.23,4.26 a 4.27,4.27 0 0 0 4.27,4.25 c 2.34,0 4.24,-1.9 4.24,-4.25 0.03,-1.14 -0.42,-2.23 -1.22,-3.03 -0.8,-0.8 -1.9,-1.24 -3.04,-1.22 z m 0,6.83 c -1.06,0.07 -2.05,-0.5 -2.5,-1.46 -0.46,-0.96 -0.3,-2.1 0.43,-2.87 0.72,-0.78 1.84,-1.03 2.83,-0.65 1,0.4 1.64,1.34 1.64,2.4 0.03,0.66 -0.2,1.3 -0.66,1.8 -0.45,0.48 -1.08,0.76 -1.74,0.78 z m -9.3,-6.83 c -2.36,0 -4.25,1.9 -4.25,4.26 a 4.245,4.245 0 1 0 8.49,0 c 0,-1.14 -0.44,-2.23 -1.24,-3.03 -0.8,-0.8 -1.9,-1.24 -3.04,-1.22 z m 0,6.83 c -1.07,0.08 -2.06,-0.5 -2.52,-1.45 -0.46,-0.96 -0.3,-2.1 0.43,-2.88 a 2.6,2.6 0 0 1 2.83,-0.65 c 1,0.4 1.64,1.34 1.64,2.4 0.03,0.66 -0.2,1.3 -0.66,1.8 -0.45,0.48 -1.08,0.76 -1.74,0.78 z m -11.1,-5.52 v 1.8 h 4.32 c -0.07,0.85 -0.42,1.65 -1,2.27 -0.87,0.9 -2.08,1.37 -3.33,1.32 a 4.801,4.801 0 0 1 0,-9.6 c 1.22,-0.02 2.4,0.44 3.27,1.3 l 1.27,-1.28 A 6.36,6.36 0 0 0 47.74,17 c -2.42,-0.1 -4.7,1.14 -5.94,3.23 a 6.589,6.589 0 0 0 0,6.75 6.592,6.592 0 0 0 5.94,3.23 c 1.73,0.1 3.4,-0.6 4.6,-1.84 a 5.933,5.933 0 0 0 1.57,-4.22 c 0,-0.38 -0.02,-0.76 -0.1,-1.13 l -6.06,0.06 z m 45.3,1.4 a 3.947,3.947 0 0 0 -3.63,-2.7 c -1.1,0 -2.15,0.44 -2.9,1.25 -0.77,0.8 -1.16,1.9 -1.1,3 0,1.13 0.42,2.22 1.22,3.02 0.8,0.8 1.88,1.25 3,1.23 1.43,0 2.76,-0.7 3.55,-1.88 l -1.45,-1 c -0.44,0.73 -1.23,1.18 -2.1,1.18 -0.88,0.03 -1.7,-0.48 -2.05,-1.3 l 5.7,-2.34 -0.22,-0.44 z m -5.8,1.42 c -0.03,-0.62 0.18,-1.24 0.6,-1.7 0.42,-0.47 1,-0.75 1.63,-0.78 0.66,-0.04 1.28,0.3 1.58,0.9 l -3.8,1.58 z M 82.65,30 h 1.86 V 17.5 H 82.64 V 30 Z m -3.07,-7.3 h -0.07 c -0.57,-0.64 -1.38,-1 -2.24,-1 -2.27,0.1 -4.05,1.98 -4.05,4.25 0,2.28 1.8,4.15 4.06,4.26 0.86,0.02 1.68,-0.34 2.24,-1 h 0.06 v 0.62 c 0,1.63 -0.87,2.5 -2.27,2.5 a 2.37,2.37 0 0 1 -2.15,-1.5 L 73.53,31.5 A 4.08,4.08 0 0 0 77.3,34 c 2.18,0 4,-1.3 4,-4.43 V 22 h -1.73 v 0.7 z m -2.14,5.88 C 76.1,28.46 75.08,27.34 75.08,26 c 0,-1.34 1.02,-2.46 2.36,-2.58 0.65,0.03 1.25,0.33 1.68,0.8 0.44,0.5 0.65,1.13 0.6,1.78 0.06,0.65 -0.16,1.3 -0.6,1.78 -0.42,0.5 -1.03,0.78 -1.68,0.8 z M 101.8,17.5 H 97.34 V 30 h 1.87 v -4.74 h 2.62 c 1.45,0.1 2.84,-0.6 3.6,-1.86 0.76,-1.24 0.76,-2.8 0,-4.04 a 3.894,3.894 0 0 0 -3.6,-1.86 z m 0,6 h -2.6 v -4.26 h 2.65 c 1.18,0 2.15,0.96 2.15,2.15 0,1.17 -0.97,2.13 -2.15,2.13 l -0.04,-0.03 z m 11.54,-1.8 c -1.4,-0.08 -2.7,0.67 -3.33,1.9 l 1.67,0.7 c 0.33,-0.62 1,-0.98 1.7,-0.92 0.48,-0.06 0.96,0.08 1.34,0.4 0.38,0.3 0.62,0.73 0.67,1.2 v 0.14 c -0.6,-0.32 -1.27,-0.48 -1.95,-0.48 -1.8,0 -3.6,1 -3.6,2.8 0.04,0.8 0.4,1.52 0.97,2.04 0.57,0.52 1.34,0.78 2.12,0.72 0.96,0.07 1.88,-0.4 2.4,-1.2 h 0.06 v 1 h 1.8 v -4.8 c 0,-2.2 -1.66,-3.47 -3.8,-3.47 l -0.04,-0.03 z m -0.23,6.85 c -0.6,0 -1.45,-0.3 -1.45,-1.06 0,-1 1.06,-1.34 2,-1.34 0.6,0 1.18,0.13 1.7,0.42 a 2.262,2.262 0 0 1 -2.2,2 l -0.04,-0.03 z m 10.64,-6.55 -2.14,5.42 h -0.06 L 119.32,22 h -2 l 3.33,7.58 -1.9,4.2 h 1.95 L 125.82,22 h -2.08 z m -16.8,8 h 1.86 V 17.5 h -1.87 V 30 Z"
           id="path12" />
        <path
           fill="url(#a)"
           d="M 10.44,7.55 C 10.11,7.95 9.94,8.48 10,9 v 22 c -0.03,0.5 0.13,1 0.46,1.4 l 0.07,0.07 12.37,-12.32 v -0.3 L 10.5,7.5 10.44,7.57 Z"
           id="path13"
           style="fill:url(#a)" />
        <path
           fill="url(#b)"
           d="m 27,24.27 -4.13,-4.13 v -0.3 l 4.13,-4.1 0.1,0.04 4.9,2.78 c 1.4,0.8 1.4,2.1 0,2.9 l -4.9,2.77 z"
           id="path14"
           style="fill:url(#b)" />
        <path
           fill="url(#c)"
           d="M 27.1,24.22 22.9,20 10.43,32.45 c 0.6,0.52 1.46,0.54 2.08,0.06 l 14.6,-8.28"
           id="path15"
           style="fill:url(#c)" />
        <path
           fill="#00f076"
           d="M 27.1,15.78 12.5,7.48 A 1.63,1.63 0 0 0 10.43,7.55 L 22.9,20 Z"
           id="path16" />
      </g>
    </g>
    <path
       fill="#a6a6a6"
       d="m 265.2,39 c 2.07,0 3.8,-1.7 3.8,-3.73 V 4.73 C 269,2.7 267.27,1 265.2,1 H 139.73 A 3.73,3.73 0 0 0 136,4.73 v 30.54 c 0,2.05 1.68,3.73 3.73,3.73 z m 0,1 H 139.73 C 137.13,40 135,37.87 135,35.27 V 4.73 C 135,2.13 137.12,0 139.73,0 H 265.2 c 2.6,0 4.8,2.12 4.8,4.73 v 30.54 c 0,2.6 -2.2,4.73 -4.8,4.73 z"
       id="path17" />
  </g>
  <metadata
     id="metadata18">
    <rdf:RDF>
      <cc:Work
         rdf:about="">
        <dc:title>app-store-badges-en</dc:title>
      </cc:Work>
    </rdf:RDF>
  </metadata>
</svg>
