<?xml version="1.0" encoding="UTF-8" standalone="no"?>
<!-- Created with Inkscape (http://www.inkscape.org/) -->

<svg
   version="1.1"
   id="svg1"
   width="512"
   height="512"
   viewBox="0 0 512 512"
   sodipodi:docname="icon_gradient_lg.svg"
   inkscape:version="1.3.2 (091e20e, 2023-11-25)"
   inkscape:export-filename="icon_gradient.png"
   inkscape:export-xdpi="192"
   inkscape:export-ydpi="192"
   xmlns:inkscape="http://www.inkscape.org/namespaces/inkscape"
   xmlns:sodipodi="http://sodipodi.sourceforge.net/DTD/sodipodi-0.dtd"
   xmlns:xlink="http://www.w3.org/1999/xlink"
   xmlns="http://www.w3.org/2000/svg"
   xmlns:svg="http://www.w3.org/2000/svg">
  <defs
     id="defs1">
    <linearGradient
       id="linearGradient1"
       inkscape:collect="always">
      <stop
         style="stop-color:#42a5f5;stop-opacity:1;"
         offset="0"
         id="stop1" />
      <stop
         style="stop-color:#ab47bc;stop-opacity:1;"
         offset="1"
         id="stop2" />
    </linearGradient>
    <linearGradient
       inkscape:collect="always"
       xlink:href="#linearGradient13"
       id="linearGradient14"
       x1="282.41388"
       y1="419.31549"
       x2="275.87695"
       y2="158.29924"
       gradientUnits="userSpaceOnUse" />
    <linearGradient
       id="linearGradient13"
       inkscape:collect="always">
      <stop
         style="stop-color:#000000;stop-opacity:0.00757578;"
         offset="0"
         id="stop13" />
      <stop
         style="stop-color:#000000;stop-opacity:0.03424658;"
         offset="1"
         id="stop14" />
    </linearGradient>
    <inkscape:path-effect
       effect="fillet_chamfer"
       id="path-effect3"
       is_visible="true"
       lpeversion="1"
       nodesatellites_param="F,0,0,1,0,0,0,1 @ F,0,0,1,0,23.041789,0,1 @ F,0,0,1,0,23.041789,0,1 @ F,0,0,1,0,0,0,1 @ F,0,0,1,0,20.690661,0,1 @ F,0,0,1,0,21.231821,0,1 @ F,0,0,1,0,24.702043,0,1 @ F,0,0,1,0,0,0,1 | F,0,0,1,0,0,0,1 @ F,0,1,1,0,7.7410062,0,1 @ F,0,0,1,0,4.7154399,0,1 @ F,0,0,1,0,0,0,1 @ F,0,0,1,0,4.7154399,0,1 @ F,0,0,1,0,5.5140151,0,1 @ F,0,0,1,0,5.6813248,0,1 @ F,0,0,1,0,4.3125538,0,1 @ F,0,0,1,0,3.8595276,0,1 @ F,0,0,1,0,2.2865701,0,1 @ F,0,0,1,0,0,0,1 @ F,0,0,1,0,0,0,1 | F,0,0,1,0,12.300473,0,1 @ F,0,0,1,0,12.093247,0,1 @ F,0,0,1,0,4.4263609,0,1 @ F,0,0,1,0,4.7344329,0,1 @ F,0,0,1,0,12.236488,0,1 @ F,0,0,1,0,12.378546,0,1 @ F,0,0,1,0,10.341229,0,1 @ F,0,0,1,0,4.7179835,0,1 @ F,0,0,1,0,4.9666897,0,1 @ F,0,0,1,0,4.1887357,0,1 @ F,0,0,1,0,1.3693186,0,1 @ F,0,0,1,0,0,0,1 @ F,0,0,1,0,1.3693186,0,1 @ F,0,0,1,0,5.5543245,0,1 | F,0,0,1,0,0,0,1 @ F,0,0,1,0,0,0,1 @ F,0,0,1,0,0,0,1 @ F,0,0,1,0,0,0,1 @ F,0,0,1,0,0,0,1 @ F,0,0,1,0,0,0,1 @ F,0,0,1,0,0,0,1 @ F,0,0,1,0,0,0,1 @ F,0,0,1,0,0,0,1 @ F,0,0,1,0,0,0,1 @ F,0,0,1,0,0,0,1 @ F,0,0,1,0,0,0,1 @ F,0,0,1,0,0,0,1 @ F,0,0,1,0,0,0,1 @ F,0,0,1,0,0,0,1 @ F,0,0,1,0,0,0,1"
       radius="0"
       unit="px"
       method="auto"
       mode="F"
       chamfer_steps="1"
       flexible="false"
       use_knot_distance="true"
       apply_no_radius="true"
       apply_with_radius="true"
       only_selected="false"
       hide_knots="false" />
    <linearGradient
       inkscape:collect="always"
       xlink:href="#linearGradient1"
       id="linearGradient2"
       x1="224.43254"
       y1="232.81473"
       x2="472.39017"
       y2="406.37238"
       gradientUnits="userSpaceOnUse" />
  </defs>
  <sodipodi:namedview
     id="namedview1"
     pagecolor="#000000"
     bordercolor="#000000"
     borderopacity="0.25"
     inkscape:showpageshadow="2"
     inkscape:pageopacity="0.0"
     inkscape:pagecheckerboard="true"
     inkscape:deskcolor="#d1d1d1"
     showguides="false"
     inkscape:zoom="0.71463845"
     inkscape:cx="214.79393"
     inkscape:cy="152.52468"
     inkscape:window-width="1512"
     inkscape:window-height="857"
     inkscape:window-x="0"
     inkscape:window-y="38"
     inkscape:window-maximized="1"
     inkscape:current-layer="g1" />
  <g
     inkscape:groupmode="layer"
     inkscape:label="Image"
     id="g1">
    <path
       style="fill:url(#linearGradient2);fill-rule:evenodd;stroke:url(#linearGradient14);stroke-width:0.964304;stroke-opacity:0.00757578"
       d="m 373.75902,388 c 5.7881,0 3.78192,-8.20697 -1.82977,-19.6087 -0.58459,-1.18776 -1.13307,-2.37994 -1.63416,-3.5678 -4.63462,-10.98658 3.33493,-24.13638 6.70491,-27.28729 V 144.56936 A 20.75255,20.75255 45.085562 0 0 356.30943,123.8169 l -203.0777,-0.60653 A 21.168503,21.168503 135.08556 0 0 132,144.37878 v 218.91918 a 24.495438,24.495438 44.759387 0 0 24.70117,24.49457 l 8.04852,-0.0676 m -20.02363,-25.54599 c 0.28921,-5.31284 1.56561,-9.44631 4.29898,-12.22246 2.9574,-3.00368 10.23041,-3.63244 14.50392,-3.75431 62.45005,-1.7809 126.41602,-3.21594 188.89348,-3.28533 2.60387,-0.003 4.34138,1.28451 3.88082,2.8723 -0.49121,1.69347 -1.35941,3.38328 -2.11115,5.06465 -1.05804,2.36643 -3.49543,4.47143 -6.09965,4.45582 -50.37647,-0.3019 -100.75379,-0.35806 -151.13012,-0.003 -3.04522,0.0214 -5.46777,2.50874 -5.41093,5.55351 0.0581,3.11338 2.64884,5.63887 5.78654,5.639 51.89778,0.002 73.09166,-0.405 153.15294,-0.49442 2.38064,-0.003 4.695,1.9063 5.66937,4.06774 0.74535,1.65339 1.62313,3.41601 2.15749,4.86351 0.6069,1.64396 -2.29555,3.0892 -4.42673,3.04901 a 219.86807,219.86807 0.4845191 0 0 -3.55014,-0.03 l -190.4655,-0.5159 c -3.39825,-0.009 -11.903,-2.32705 -14.88231,-12.65623 M 154.30047,132 h 3.60628 A 12.093247,12.093247 45 0 1 170,144.09325 v 136.73042 a 4.4263609,4.4263609 45 0 0 4.42636,4.42636 h 0.83921 A 4.7344329,4.7344329 135 0 0 180,280.5156 V 144.23649 A 12.236488,12.236488 135 0 1 192.23649,132 H 354.62145 A 12.378546,12.378546 45 0 1 367,144.37855 V 324.65877 A 10.341229,10.341229 135 0 1 356.65877,335 H 184.71798 A 4.7179835,4.7179835 45 0 1 180,330.28202 v -25.97294 a 4.9666897,4.9666897 45 0 0 -4.96669,-4.96669 h -0.84457 A 4.1887357,4.1887357 135 0 0 170,303.53113 v 30.09955 A 1.3693186,1.3693186 135 0 1 168.63068,335 h -3.84519 c -6.90624,0 -12.29376,1.13932 -16.96917,3.88538 -0.65202,0.38295 -1.67194,1.06512 -2.32109,1.45296 -1.85302,1.10711 -3.56204,-0.73653 -3.58827,-3.80317 C 141.66891,308.70648 141.477,184.16164 141.77691,144.29613 141.828,137.50424 147.50711,132 154.30047,132 Z m 157.4841,105.62695 c 12.52264,-29.43537 22.56364,-54.07203 22.31335,-54.74814 -0.34805,-0.94016 -3.99688,-1.16697 -15.5127,-0.96431 l -15.0576,0.26499 -13.03593,34.76487 c -7.16977,19.12067 -13.70647,36.63835 -14.52602,38.92817 l -1.49009,4.1633 -2.55218,-6.624 c -14.94631,-38.79211 -27.13204,-69.53271 -27.95983,-70.53347 -0.76114,-0.9202 -4.68408,-1.16294 -15.58452,-0.96431 l -14.56733,0.26544 0.10869,2.41076 c 0.0598,1.32592 9.75147,24.97547 21.53707,52.55455 11.78562,27.57909 21.8192,51.1312 22.29684,52.33804 0.85874,2.16969 1.03848,2.19127 16.06513,1.92861 l 15.19668,-0.26564 z"
       id="path262145-2"
       sodipodi:nodetypes="cccccccccccsccccscsccccccccccccscccscsscssscsssscsss"
       inkscape:label="path262145"
       inkscape:path-effect="#path-effect3"
       inkscape:original-d="m 373.75902,388 c 0,0 11.47513,1.2382 10.47894,-0.168 -8.59252,-11.43558 -24.05374,-34.84839 -13.3398,-44.59061 L 377,337.53621 V 123.8787 L 132,123.14696 V 388 l 32.74969,-0.27507 m -20.02363,-25.54599 c 0.46627,-8.56537 3.49841,-14.06533 11.06509,-15.75418 66.46467,-1.928 134.7949,-3.51055 201.34602,-3.51055 l -0.83391,2.87493 c -0.93025,3.20709 -3.21258,6.40109 -3.49545,9.54944 -53.78615,-0.33853 -107.57333,-0.40281 -161.35931,0.008 l 0.20813,11.15023 c 57.10069,0.0339 76.57975,-0.41495 163.14479,-0.49705 0.18357,3.39819 6.44345,12.12339 2.94844,12.05748 l -5.12242,-0.0966 -192.75206,-0.52209 c -3.39825,-0.009 -11.903,-2.32705 -14.88231,-12.65623 M 142,132 h 28 v 153.25003 h 10 V 132 H 367 V 335 H 180 V 299.34239 H 170 V 335 h -5.21451 c -7.4853,0 -13.18653,1.33839 -18.13068,4.61028 -2.05861,1.36233 -4.37826,2.47696 -4.65481,2.47696 -0.31911,0 -0.65741,-207.71977 0,-210.08724 z m 169.78457,105.62695 c 12.52264,-29.43537 22.56364,-54.07203 22.31335,-54.74814 -0.34805,-0.94016 -3.99688,-1.16697 -15.5127,-0.96431 l -15.0576,0.26499 -13.03593,34.76487 c -7.16977,19.12067 -13.70647,36.63835 -14.52602,38.92817 l -1.49009,4.1633 -2.55218,-6.624 c -14.94631,-38.79211 -27.13204,-69.53271 -27.95983,-70.53347 -0.76114,-0.9202 -4.68408,-1.16294 -15.58452,-0.96431 l -14.56733,0.26544 0.10869,2.41076 c 0.0598,1.32592 9.75147,24.97547 21.53707,52.55455 11.78562,27.57909 21.8192,51.1312 22.29684,52.33804 0.85874,2.16969 1.03848,2.19127 16.06513,1.92861 l 15.19668,-0.26564 z"
       transform="matrix(1.6590367,0,0,1.7900569,-166.42407,-201.54774)" />
  </g>
</svg>
